En kvinna har blivit mördad och hennes 14-åriga lillasyster har sett något hon inte borde ha sett. Nu är hon på vild flykt från professionella hitmördare, men hon har lyckligtvis den rutinerade Joe Garvey på sin sida?


Format                         : Matroska
Format version                 : Version 2
File size                      : 1 017 MiB
Duration                       : 1h 32mn
Overall bit rate               : 1 531 Kbps


Video
ID                             : 1
Format                         : AVC
Format/Info                    : Advanced Video Codec
Format profile                 : High@L3.1
Format settings, CABAC         : Yes
Format settings, ReFrames      : 4 frames
Codec ID                       : V_MPEG4/ISO/AVC
Duration                       : 1h 32mn
Bit rate                       : 1 309 Kbps
Width                          : 720 pixels
Height                         : 592 pixels
Display aspect ratio           : 1.297
Original display aspect ratio  : 1.298
Frame rate mode                : Variable / Variable
Frame rate                     : 25.000 fps
Color space                    : YUV
Chroma subsampling             : 4:2:0
Bit depth                      : 8 bits
Scan type                      : Progressive
Bits/(Pixel*Frame)             : 0.123
Stream size                    : 869 MiB (85%)
Writing library                : x264 core 125
Language                       : English
Default                        : Yes
Forced                         : No
Color primaries                : BT.470-6 System B, BT.470-6 System G, BT.601-6 625, BT.1358 625, BT.1700 625 PAL, BT.1700 625 SECAM
Transfer characteristics       : BT.709-5, BT.1361
Matrix coefficients            : BT.601-6 525, BT.1358 525, BT.1700 NTSC, SMPTE 170M

Audio
ID                             : 2
Format                         : AC-3
Format/Info                    : Audio Coding 3
Mode extension                 : CM (complete main)
Format settings, Endianness    : Big
Codec ID                       : A_AC3
Duration                       : 1h 32mn
Bit rate mode                  : Constant
Bit rate                       : 192 Kbps
Channel(s)                     : 2 channels
Channel positions              : Front: L R
Sampling rate                  : 48.0 KHz
Bit depth                      : 16 bits
Compression mode               : Lossy
Stream size                    : 127 MiB (13%)
Language                       : English
Default                        : Yes
Forced                         : No

Menu
00:00:00.000                   : Chapter 1
00:05:25.632                   : Chapter 2
00:15:37.632                   : Chapter 3
00:25:03.232                   : Chapter 4
00:33:21.232                   : Chapter 5
00:45:05.232                   : Chapter 6
01:04:47.232                   : Chapter 7
01:25:54.032                   : Chapter 8
01:29:50.432                   : Chapter 9
